<?xml version="1.0" standalone="no"?><svg xmlns="http://www.w3.org/2000/svg" viewBox="0 0 1440 320"><path fill="#0099ff" fill-opacity="1" d="M0,128L9.6,128C19.2,128,38,128,58,128C76.8,128,96,128,115,117.3C134.4,107,154,85,173,117.3C192,149,211,235,230,266.7C249.6,299,269,277,288,266.7C307.2,256,326,256,346,250.7C364.8,245,384,235,403,213.3C422.4,192,442,160,461,144C480,128,499,128,518,149.3C537.6,171,557,213,576,218.7C595.2,224,614,192,634,176C652.8,160,672,160,691,138.7C710.4,117,730,75,749,96C768,117,787,203,806,218.7C825.6,235,845,181,864,176C883.2,171,902,213,922,234.7C940.8,256,960,256,979,240C998.4,224,1018,192,1037,186.7C1056,181,1075,203,1094,192C1113.6,181,1133,139,1152,122.7C1171.2,107,1190,117,1210,112C1228.8,107,1248,85,1267,85.3C1286.4,85,1306,107,1325,106.7C1344,107,1363,85,1382,64C1401.6,43,1421,21,1430,10.7L1440,0L1440,320L1430.4,320C1420.8,320,1402,320,1382,320C1363.2,320,1344,320,1325,320C1305.6,320,1286,320,1267,320C1248,320,1229,320,1210,320C1190.4,320,1171,320,1152,320C1132.8,320,1114,320,1094,320C1075.2,320,1056,320,1037,320C1017.6,320,998,320,979,320C960,320,941,320,922,320C902.4,320,883,320,864,320C844.8,320,826,320,806,320C787.2,320,768,320,749,320C729.6,320,710,320,691,320C672,320,653,320,634,320C614.4,320,595,320,576,320C556.8,320,538,320,518,320C499.2,320,480,320,461,320C441.6,320,422,320,403,320C384,320,365,320,346,320C326.4,320,307,320,288,320C268.8,320,250,320,230,320C211.2,320,192,320,173,320C153.6,320,134,320,115,320C96,320,77,320,58,320C38.4,320,19,320,10,320L0,320Z"></path></svg>